<?xml version="1.0" encoding="UTF-8" standalone="no"?>
<!-- Created with Inkscape (http://www.inkscape.org/) -->

<svg
   xmlns:dc="http://purl.org/dc/elements/1.1/"
   xmlns:cc="http://creativecommons.org/ns#"
   xmlns:rdf="http://www.w3.org/1999/02/22-rdf-syntax-ns#"
   xmlns:svg="http://www.w3.org/2000/svg"
   xmlns="http://www.w3.org/2000/svg"
   xmlns:sodipodi="http://sodipodi.sourceforge.net/DTD/sodipodi-0.dtd"
   xmlns:inkscape="http://www.inkscape.org/namespaces/inkscape"
   width="20.509663mm"
   height="15.744509mm"
   viewBox="0 0 20.509663 15.744509"
   version="1.1"
   id="svg1072"
   inkscape:version="0.92.4 (5da689c313, 2019-01-14)"
   sodipodi:docname="weprintyourfabric_logo.svg">
  <defs
     id="defs1066" />
  <sodipodi:namedview
     id="base"
     pagecolor="#ffffff"
     bordercolor="#666666"
     borderopacity="1.0"
     inkscape:pageopacity="0.0"
     inkscape:pageshadow="2"
     inkscape:zoom="11.2"
     inkscape:cx="61.837259"
     inkscape:cy="38.005155"
     inkscape:document-units="mm"
     inkscape:current-layer="text817-9-27-2"
     showgrid="false"
     inkscape:window-width="2560"
     inkscape:window-height="1377"
     inkscape:window-x="1912"
     inkscape:window-y="-8"
     inkscape:window-maximized="1"
     fit-margin-top="0.2"
     fit-margin-left="0.2"
     fit-margin-right="0.2"
     fit-margin-bottom="0.2" />
  <metadata
     id="metadata1069">
    <rdf:RDF>
      <cc:Work
         rdf:about="">
        <dc:format>image/svg+xml</dc:format>
        <dc:type
           rdf:resource="http://purl.org/dc/dcmitype/StillImage" />
        <dc:title></dc:title>
      </cc:Work>
    </rdf:RDF>
  </metadata>
  <g
     inkscape:label="Calque 1"
     inkscape:groupmode="layer"
     id="layer1"
     transform="translate(-0.90882032,-280.73136)">
    <g
       id="text817-9-27-2"
       style="font-style:normal;font-variant:normal;font-weight:bold;font-stretch:normal;font-size:4.76556873px;line-height:1.25;font-family:Comfortaa;-inkscape-font-specification:'Comfortaa, Bold';font-variant-ligatures:normal;font-variant-caps:normal;font-variant-numeric:normal;font-feature-settings:normal;text-align:start;letter-spacing:0px;word-spacing:0px;writing-mode:lr-tb;text-anchor:start;fill:#d50000;fill-opacity:1;stroke:#000000;stroke-width:0.26458335;stroke-opacity:0"
       transform="matrix(1.1004538,0,0,1.0699216,-203.85199,19.119666)"
       aria-label="OUR">
      <g
         id="g938">
        <path
           style="opacity:1;fill:#ffffff;fill-opacity:1;stroke:#000000;stroke-width:0.43403214;stroke-linecap:butt;stroke-linejoin:round;stroke-miterlimit:4;stroke-dasharray:none;stroke-dashoffset:0;stroke-opacity:1;paint-order:normal"
           d="M 2.8041852,281.1479 H 19.523118 c 0.81874,0 1.477873,0.53742 1.477873,1.20496 v 12.5015 c 0,0.66755 -0.659133,1.20498 -1.477873,1.20498 H 2.8041852 c -0.8187402,0 -1.4778735,-0.53743 -1.4778735,-1.20498 v -12.5015 c 0,-0.66754 0.6591333,-1.20496 1.4778735,-1.20496 z"
           id="rect948-8"
           inkscape:connector-curvature="0"
           transform="matrix(0.90871603,0,0,0.93464793,185.24357,-17.870153)" />
        <path
           inkscape:connector-curvature="0"
           id="path829"
           style="font-style:normal;font-variant:normal;font-weight:normal;font-stretch:normal;font-size:1.858163px;line-height:1.25;font-family:Comfortaa;-inkscape-font-specification:'Comfortaa, Normal';font-variant-ligatures:normal;font-variant-caps:normal;font-variant-numeric:normal;font-feature-settings:normal;text-align:start;letter-spacing:0px;word-spacing:0px;writing-mode:lr-tb;text-anchor:start;fill:#000000;fill-opacity:1;stroke:#000000;stroke-width:0.28709418;stroke-opacity:0"
           d="m 5.8112109,284.57925 q -0.026631,0 -0.046989,-0.0139 -0.020468,-0.0139 -0.028612,-0.0357 l -0.3189996,-0.93043 q -0.012215,-0.0498 0.0022,-0.0776 0.014306,-0.0299 0.057224,-0.0299 0.026631,0 0.046989,0.0139 0.020468,0.0139 0.030703,0.0438 l 0.2842362,0.84494 h -0.045009 l 0.2637788,-0.84295 q 0.0077,-0.0258 0.026631,-0.0417 0.020468,-0.0179 0.051171,-0.0179 0.030703,0 0.04908,0.0159 0.020468,0.0159 0.028612,0.0438 l 0.2515087,0.82307 H 6.428961 l 0.2780957,-0.82506 q 0.020468,-0.0577 0.075601,-0.0577 0.045009,0 0.061295,0.0338 0.016397,0.0318 0,0.0735 l -0.3189885,0.93043 q -0.0077,0.0218 -0.028612,0.0357 -0.018378,0.0139 -0.045009,0.0139 -0.026631,0 -0.04908,-0.0139 -0.020468,-0.0139 -0.026631,-0.0357 l -0.2576493,-0.83102 h 0.02454 l -0.2576493,0.83102 q -0.0077,0.0239 -0.028612,0.0378 -0.020468,0.012 -0.045008,0.012 z"
           transform="matrix(0.90871603,0,0,0.93464793,185.24357,-17.870153)" />
        <path
           inkscape:connector-curvature="0"
           id="path831"
           style="font-style:normal;font-variant:normal;font-weight:normal;font-stretch:normal;font-size:1.858163px;line-height:1.25;font-family:Comfortaa;-inkscape-font-specification:'Comfortaa, Normal';font-variant-ligatures:normal;font-variant-caps:normal;font-variant-numeric:normal;font-feature-settings:normal;text-align:start;letter-spacing:0px;word-spacing:0px;writing-mode:lr-tb;text-anchor:start;fill:#000000;fill-opacity:1;stroke:#000000;stroke-width:0.28709418;stroke-opacity:0"
           d="m 7.5384832,284.58919 q -0.1656293,0 -0.2944594,-0.0695 -0.1267833,-0.0716 -0.2003926,-0.19683 -0.07153,-0.12525 -0.07153,-0.28629 0,-0.16302 0.067458,-0.28628 0.069549,-0.12525 0.1901694,-0.19682 0.1206537,-0.0716 0.2780957,-0.0716 0.1554061,0 0.2699193,0.0695 0.11656,0.0676 0.1799462,0.18887 0.063386,0.12127 0.063386,0.27634 0,0.0318 -0.020468,0.0517 -0.020468,0.0179 -0.053152,0.0179 H 7.0784055 v -0.12725 h 0.8854031 l -0.087926,0.0616 q 0.0022,-0.11532 -0.042918,-0.20676 -0.045009,-0.0915 -0.1288192,-0.14315 -0.081764,-0.0517 -0.1963099,-0.0517 -0.1165491,0 -0.2044753,0.0537 -0.087926,0.0537 -0.1370065,0.14911 -0.046989,0.0934 -0.046989,0.21471 0,0.12128 0.053152,0.21471 0.055243,0.0934 0.1492656,0.14713 0.094089,0.0537 0.2167563,0.0537 0.07362,0 0.1472187,-0.0239 0.075711,-0.0259 0.1206538,-0.0637 0.022449,-0.0179 0.051061,-0.0179 0.028612,-0.002 0.04908,0.0139 0.026521,0.0239 0.026521,0.0517 0.0022,0.0278 -0.022449,0.0477 -0.067458,0.0556 -0.1717589,0.0934 -0.104323,0.0357 -0.2003926,0.0357 z"
           transform="matrix(0.90871603,0,0,0.93464793,185.24357,-17.870153)" />
        <path
           inkscape:connector-curvature="0"
           id="path834"
           style="font-style:normal;font-variant:normal;font-weight:normal;font-stretch:normal;font-size:3.85404015px;line-height:1.25;font-family:Comfortaa;-inkscape-font-specification:'Comfortaa, Normal';font-variant-ligatures:normal;font-variant-caps:normal;font-variant-numeric:normal;font-feature-settings:normal;text-align:start;letter-spacing:0px;word-spacing:0px;writing-mode:lr-tb;text-anchor:start;fill:#000000;fill-opacity:1;stroke:#000000;stroke-width:0.28709418;stroke-opacity:0"
           d="m 8.5320389,285.86499 q -0.07208,0 -0.1187499,-0.0454 -0.046659,-0.0454 -0.046659,-0.11545 v -2.89884 q 0,-0.0701 0.046659,-0.11545 0.046659,-0.0454 0.1187499,-0.0454 h 0.8482408 q 0.3138495,0 0.5555971,0.13609 0.2417482,0.13195 0.3774672,0.36699 0.135718,0.23504 0.135718,0.5443 0,0.30101 -0.135718,0.53605 -0.135719,0.23092 -0.3774672,0.367 -0.2417476,0.13195 -0.5555971,0.13195 H 8.6974481 v 0.97728 q 0,0.0701 -0.046659,0.11545 -0.046659,0.0454 -0.11875,0.0454 z m 0.1654092,-1.44736 h 0.6828316 q 0.2163052,0 0.3859512,-0.0907 0.1696459,-0.0948 0.2629531,-0.25978 0.0975,-0.16495 0.0975,-0.37524 0,-0.21855 -0.0975,-0.38349 -0.093318,-0.16494 -0.2629531,-0.25978 -0.169646,-0.0948 -0.3859512,-0.0948 H 8.6974481 Z"
           transform="matrix(0.90871603,0,0,0.93464793,185.24357,-17.870153)" />
        <path
           inkscape:connector-curvature="0"
           id="path836"
           style="font-style:normal;font-variant:normal;font-weight:normal;font-stretch:normal;font-size:3.85404015px;line-height:1.25;font-family:Comfortaa;-inkscape-font-specification:'Comfortaa, Normal';font-variant-ligatures:normal;font-variant-caps:normal;font-variant-numeric:normal;font-feature-settings:normal;text-align:start;letter-spacing:0px;word-spacing:0px;writing-mode:lr-tb;text-anchor:start;fill:#000000;fill-opacity:1;stroke:#000000;stroke-width:0.28709418;stroke-opacity:0"
           d="m 11.052705,284.47536 q 0.01277,-0.25566 0.135708,-0.45771 0.127246,-0.20205 0.326582,-0.31751 0.203573,-0.11547 0.449557,-0.11547 0.1951,0 0.301129,0.0536 0.106083,0.0536 0.08055,0.15669 -0.01695,0.0618 -0.05943,0.0825 -0.03819,0.0206 -0.0975,0.0165 -0.05513,-0.004 -0.127234,-0.009 -0.237511,-0.0206 -0.424126,0.0494 -0.182367,0.066 -0.292644,0.20617 -0.106084,0.1402 -0.106084,0.33401 z m 0.02542,1.38963 q -0.07637,0 -0.11875,-0.0412 -0.04237,-0.0412 -0.04237,-0.11547 v -1.94218 q 0,-0.0743 0.04237,-0.11545 0.04237,-0.0412 0.11875,-0.0412 0.07637,0 0.11875,0.0412 0.04237,0.0412 0.04237,0.11545 v 1.94218 q 0,0.0743 -0.04237,0.11547 -0.04237,0.0412 -0.11875,0.0412 z"
           transform="matrix(0.90871603,0,0,0.93464793,185.24357,-17.870153)" />
        <path
           inkscape:connector-curvature="0"
           id="path838"
           style="font-style:normal;font-variant:normal;font-weight:normal;font-stretch:normal;font-size:3.85404015px;line-height:1.25;font-family:Comfortaa;-inkscape-font-specification:'Comfortaa, Normal';font-variant-ligatures:normal;font-variant-caps:normal;font-variant-numeric:normal;font-feature-settings:normal;text-align:start;letter-spacing:0px;word-spacing:0px;writing-mode:lr-tb;text-anchor:start;fill:#000000;fill-opacity:1;stroke:#000000;stroke-width:0.28709418;stroke-opacity:0"
           d="m 13.096886,285.86499 q -0.07637,0 -0.122986,-0.0412 -0.04237,-0.0454 -0.04237,-0.11959 v -1.93393 q 0,-0.0743 0.04237,-0.11546 0.04666,-0.0454 0.122986,-0.0454 0.07208,0 0.114514,0.0454 0.04666,0.0412 0.04666,0.11546 v 1.93393 q 0,0.0743 -0.04666,0.11959 -0.04237,0.0412 -0.114514,0.0412 z m -0.0044,-2.68441 q -0.09332,0 -0.161162,-0.066 -0.0679,-0.066 -0.0679,-0.16081 0,-0.10314 0.0679,-0.16082 0.07208,-0.0618 0.165398,-0.0618 0.08903,0 0.156925,0.0618 0.07208,0.0578 0.07208,0.16082 0,0.0948 -0.0679,0.16081 -0.0679,0.066 -0.165409,0.066 z"
           transform="matrix(0.90871603,0,0,0.93464793,185.24357,-17.870153)" />
        <path
           inkscape:connector-curvature="0"
           id="path840"
           style="font-style:normal;font-variant:normal;font-weight:normal;font-stretch:normal;font-size:3.85404015px;line-height:1.25;font-family:Comfortaa;-inkscape-font-specification:'Comfortaa, Normal';font-variant-ligatures:normal;font-variant-caps:normal;font-variant-numeric:normal;font-feature-settings:normal;text-align:start;letter-spacing:0px;word-spacing:0px;writing-mode:lr-tb;text-anchor:start;fill:#000000;fill-opacity:1;stroke:#000000;stroke-width:0.28709418;stroke-opacity:0"
           d="m 16.078709,285.86499 q -0.07208,0 -0.11875,-0.0454 -0.04666,-0.0454 -0.04666,-0.11133 v -1.07212 q 0,-0.25566 -0.101792,-0.4206 -0.0975,-0.16493 -0.271438,-0.2474 -0.169646,-0.0825 -0.385951,-0.0825 -0.20781,0 -0.377467,0.0783 -0.165398,0.0783 -0.262953,0.21443 -0.0975,0.13607 -0.0975,0.30926 h -0.233263 q 0.0088,-0.25979 0.144204,-0.46183 0.135708,-0.20619 0.360497,-0.32164 0.224779,-0.11959 0.500465,-0.11959 0.301117,0 0.538628,0.1237 0.237511,0.11959 0.373219,0.35463 0.139966,0.23504 0.139966,0.57317 v 1.07211 q 0,0.066 -0.04666,0.11134 -0.04666,0.0454 -0.114513,0.0454 z m -1.823705,0 q -0.07637,0 -0.122998,-0.0412 -0.04237,-0.0454 -0.04237,-0.11547 v -1.93805 q 0,-0.0743 0.04237,-0.11546 0.04666,-0.0454 0.122998,-0.0454 0.07208,0 0.114513,0.0454 0.04666,0.0412 0.04666,0.11546 v 1.93805 q 0,0.0701 -0.04666,0.11547 -0.04237,0.0412 -0.114513,0.0412 z"
           transform="matrix(0.90871603,0,0,0.93464793,185.24357,-17.870153)" />
        <path
           inkscape:connector-curvature="0"
           id="path842"
           style="font-style:normal;font-variant:normal;font-weight:normal;font-stretch:normal;font-size:3.85404015px;line-height:1.25;font-family:Comfortaa;-inkscape-font-specification:'Comfortaa, Normal';font-variant-ligatures:normal;font-variant-caps:normal;font-variant-numeric:normal;font-feature-settings:normal;text-align:start;letter-spacing:0px;word-spacing:0px;writing-mode:lr-tb;text-anchor:start;fill:#000000;fill-opacity:1;stroke:#000000;stroke-width:0.28709418;stroke-opacity:0"
           d="m 17.871612,285.86499 q -0.224778,0 -0.402909,-0.10314 -0.173894,-0.10314 -0.275685,-0.28041 -0.101792,-0.18144 -0.101792,-0.41235 v -2.0164 q 0,-0.0701 0.04237,-0.11546 0.04666,-0.0454 0.11875,-0.0454 0.07208,0 0.11875,0.0454 0.04666,0.0454 0.04666,0.11546 v 2.0164 q 0,0.2103 0.127235,0.34638 0.127234,0.13195 0.32657,0.13195 h 0.114514 q 0.0679,0 0.110265,0.0454 0.04237,0.0454 0.04237,0.11545 0,0.0701 -0.05084,0.11547 -0.05095,0.0412 -0.127246,0.0412 z m -1.056061,-1.89682 q -0.06361,0 -0.106084,-0.0371 -0.04237,-0.0412 -0.04237,-0.099 0,-0.0618 0.04237,-0.099 0.04237,-0.0412 0.106084,-0.0412 h 1.081504 q 0.06361,0 0.106084,0.0412 0.04237,0.0371 0.04237,0.099 0,0.0577 -0.04237,0.099 -0.04237,0.0371 -0.106084,0.0371 z"
           transform="matrix(0.90871603,0,0,0.93464793,185.24357,-17.870153)" />
        <path
           inkscape:connector-curvature="0"
           id="path845"
           style="font-style:normal;font-variant:normal;font-weight:normal;font-stretch:normal;font-size:4.33745432px;line-height:1.25;font-family:Comfortaa;-inkscape-font-specification:'Comfortaa, Normal';font-variant-ligatures:normal;font-variant-caps:normal;font-variant-numeric:normal;font-feature-settings:normal;text-align:start;letter-spacing:0px;word-spacing:0px;writing-mode:lr-tb;text-anchor:start;fill:#000000;fill-opacity:1;stroke:#000000;stroke-width:0.28709418;stroke-opacity:0"
           d="m 3.6235308,294.19383 q -0.076372,0 -0.1336501,-0.051 -0.052492,-0.0556 -0.052492,-0.12994 v -3.26244 q 0,-0.0789 0.052492,-0.12994 0.052492,-0.051 0.1336501,-0.051 h 2.2386201 q 0.081104,0 0.1336502,0.051 0.052492,0.0464 0.052492,0.12531 0,0.0697 -0.052492,0.12065 -0.052492,0.051 -0.1336502,0.051 H 3.8096836 v 1.28084 h 1.493998 q 0.081104,0 0.1336502,0.051 0.052492,0.051 0.052492,0.1253 0,0.0743 -0.052492,0.1253 -0.052492,0.051 -0.1336502,0.051 h -1.493998 v 1.46184 q 0,0.0743 -0.052492,0.12994 -0.052492,0.051 -0.1336501,0.051 z"
           transform="matrix(0.90871603,0,0,0.93464793,185.24357,-17.870153)" />
        <path
           inkscape:connector-curvature="0"
           id="path847"
           style="font-style:normal;font-variant:normal;font-weight:normal;font-stretch:normal;font-size:4.33745432px;line-height:1.25;font-family:Comfortaa;-inkscape-font-specification:'Comfortaa, Normal';font-variant-ligatures:normal;font-variant-caps:normal;font-variant-numeric:normal;font-feature-settings:normal;text-align:start;letter-spacing:0px;word-spacing:0px;writing-mode:lr-tb;text-anchor:start;fill:#000000;fill-opacity:1;stroke:#000000;stroke-width:0.28709418;stroke-opacity:0"
           d="m 7.819143,294.21704 q -0.3675296,0 -0.6586987,-0.16707 -0.291158,-0.1717 -0.4629939,-0.46406 -0.1670599,-0.29237 -0.1670599,-0.65899 0,-0.37126 0.1718359,-0.66363 0.1766008,-0.29237 0.4773108,-0.45944 0.30071,-0.1717 0.6777915,-0.1717 0.3770815,0 0.6730155,0.1717 0.30071,0.16707 0.4725459,0.45944 0.1766118,0.29237 0.1813878,0.66363 l -0.147978,0.11138 q 0,0.33412 -0.1622839,0.60329 -0.157519,0.26452 -0.4343602,0.4223 -0.2720652,0.15315 -0.6205128,0.15315 z m 0.038186,-0.32485 q 0.2768522,0 0.4916387,-0.1253 0.2195626,-0.1253 0.3436718,-0.34341 0.1288741,-0.22276 0.1288741,-0.49656 0,-0.27845 -0.1288741,-0.49656 Q 8.56853,292.21224 8.3489674,292.08694 8.1341809,291.957 7.8573287,291.957 q -0.2720652,0 -0.4916387,0.12994 -0.2195626,0.1253 -0.3484367,0.34342 -0.1288742,0.21811 -0.1288742,0.49656 0,0.2738 0.1288742,0.49656 0.1288741,0.21811 0.3484367,0.34341 0.2195735,0.1253 0.491639,0.1253 z m 1.1407854,0.30164 q -0.081103,0 -0.1336391,-0.0464 -0.052492,-0.051 -0.052492,-0.12994 v -0.79356 l 0.090677,-0.36662 0.2816171,0.0697 v 1.09057 q 0,0.0788 -0.052492,0.12994 -0.052492,0.0464 -0.1336502,0.0464 z"
           transform="matrix(0.90871603,0,0,0.93464793,185.24357,-17.870153)" />
        <path
           inkscape:connector-curvature="0"
           id="path849"
           style="font-style:normal;font-variant:normal;font-weight:normal;font-stretch:normal;font-size:4.33745432px;line-height:1.25;font-family:Comfortaa;-inkscape-font-specification:'Comfortaa, Normal';font-variant-ligatures:normal;font-variant-caps:normal;font-variant-numeric:normal;font-feature-settings:normal;text-align:start;letter-spacing:0px;word-spacing:0px;writing-mode:lr-tb;text-anchor:start;fill:#000000;fill-opacity:1;stroke:#000000;stroke-width:0.28709418;stroke-opacity:0"
           d="m 11.225917,294.21704 q -0.372306,0 -0.673016,-0.16707 -0.295934,-0.16707 -0.472546,-0.45479 -0.1718244,-0.29237 -0.1766004,-0.65434 v -2.19043 q 0,-0.0836 0.04776,-0.12994 0.052492,-0.051 0.1384254,-0.051 0.0811,0 0.128875,0.051 0.05249,0.0464 0.05249,0.12994 v 1.36437 q 0.157519,-0.21811 0.415267,-0.34804 0.262525,-0.13459 0.582328,-0.13459 0.367529,0 0.658698,0.1717 0.291158,0.16707 0.458218,0.45944 0.171836,0.29237 0.171836,0.65899 0,0.37126 -0.176601,0.66363 -0.171836,0.29236 -0.472546,0.46406 -0.30071,0.16707 -0.682567,0.16707 z m 0,-0.32485 q 0.276852,0 0.496415,-0.1253 0.219562,-0.12994 0.343671,-0.34805 0.128874,-0.21812 0.128874,-0.49656 0,-0.27381 -0.128874,-0.49192 -0.124109,-0.22276 -0.343671,-0.34806 -0.219563,-0.1253 -0.496415,-0.1253 -0.272065,0 -0.491628,0.1253 -0.219573,0.1253 -0.343672,0.34806 -0.124098,0.21811 -0.124098,0.49192 0,0.27844 0.124098,0.49656 0.124099,0.21811 0.343672,0.34805 0.219563,0.1253 0.491628,0.1253 z"
           transform="matrix(0.90871603,0,0,0.93464793,185.24357,-17.870153)" />
        <path
           inkscape:connector-curvature="0"
           id="path851"
           style="font-style:normal;font-variant:normal;font-weight:normal;font-stretch:normal;font-size:4.33745432px;line-height:1.25;font-family:Comfortaa;-inkscape-font-specification:'Comfortaa, Normal';font-variant-ligatures:normal;font-variant-caps:normal;font-variant-numeric:normal;font-feature-settings:normal;text-align:start;letter-spacing:0px;word-spacing:0px;writing-mode:lr-tb;text-anchor:start;fill:#000000;fill-opacity:1;stroke:#000000;stroke-width:0.28709418;stroke-opacity:0"
           d="m 13.43127,292.62991 q 0.01431,-0.28772 0.152743,-0.51513 0.143191,-0.22739 0.36753,-0.35733 0.229114,-0.12994 0.505955,-0.12994 0.219574,0 0.338896,0.0603 0.119333,0.0603 0.09068,0.17635 -0.01915,0.0697 -0.0668,0.0928 -0.04292,0.0232 -0.109825,0.0186 -0.06207,-0.004 -0.143191,-0.01 -0.267301,-0.0232 -0.477322,0.0556 -0.205246,0.0743 -0.329344,0.23204 -0.119333,0.15778 -0.119333,0.37589 z m 0.02861,1.56392 q -0.08595,0 -0.13365,-0.0464 -0.04776,-0.0464 -0.04776,-0.12994 v -2.18579 q 0,-0.0836 0.04776,-0.12994 0.04776,-0.0464 0.13365,-0.0464 0.08594,0 0.13365,0.0464 0.04776,0.0464 0.04776,0.12994 v 2.18579 q 0,0.0836 -0.04776,0.12994 -0.04776,0.0464 -0.13365,0.0464 z"
           transform="matrix(0.90871603,0,0,0.93464793,185.24357,-17.870153)" />
        <path
           inkscape:connector-curvature="0"
           id="path853"
           style="font-style:normal;font-variant:normal;font-weight:normal;font-stretch:normal;font-size:4.33745432px;line-height:1.25;font-family:Comfortaa;-inkscape-font-specification:'Comfortaa, Normal';font-variant-ligatures:normal;font-variant-caps:normal;font-variant-numeric:normal;font-feature-settings:normal;text-align:start;letter-spacing:0px;word-spacing:0px;writing-mode:lr-tb;text-anchor:start;fill:#000000;fill-opacity:1;stroke:#000000;stroke-width:0.28709418;stroke-opacity:0"
           d="m 15.731868,294.19383 q -0.08595,0 -0.138426,-0.0464 -0.04776,-0.051 -0.04776,-0.13459 v -2.17649 q 0,-0.0836 0.04776,-0.12995 0.05249,-0.051 0.138426,-0.051 0.0811,0 0.128874,0.051 0.05249,0.0464 0.05249,0.12995 v 2.17649 q 0,0.0836 -0.05249,0.13459 -0.04776,0.0464 -0.128874,0.0464 z m -0.0044,-3.02111 q -0.104983,0 -0.181377,-0.0743 -0.07637,-0.0743 -0.07637,-0.18099 0,-0.11602 0.07637,-0.18099 0.0811,-0.0697 0.186153,-0.0697 0.100251,0 0.176601,0.0697 0.0811,0.0649 0.0811,0.18099 0,0.10678 -0.07637,0.18099 -0.07637,0.0743 -0.186153,0.0743 z"
           transform="matrix(0.90871603,0,0,0.93464793,185.24357,-17.870153)" />
        <path
           inkscape:connector-curvature="0"
           id="path855"
           style="font-style:normal;font-variant:normal;font-weight:normal;font-stretch:normal;font-size:4.33745432px;line-height:1.25;font-family:Comfortaa;-inkscape-font-specification:'Comfortaa, Normal';font-variant-ligatures:normal;font-variant-caps:normal;font-variant-numeric:normal;font-feature-settings:normal;text-align:start;letter-spacing:0px;word-spacing:0px;writing-mode:lr-tb;text-anchor:start;fill:#000000;fill-opacity:1;stroke:#000000;stroke-width:0.28709418;stroke-opacity:0"
           d="m 18.013736,294.21704 q -0.377082,0 -0.673016,-0.16707 -0.291158,-0.1717 -0.462994,-0.46406 -0.167059,-0.29237 -0.167059,-0.65899 0,-0.37126 0.162284,-0.66363 0.162283,-0.29237 0.443901,-0.45944 0.281617,-0.1717 0.649157,-0.1717 0.291158,0 0.53459,0.11138 0.248207,0.11138 0.43436,0.33413 0.05249,0.0557 0.03819,0.12066 -0.01431,0.0603 -0.0811,0.10678 -0.05249,0.0371 -0.119322,0.0278 -0.06207,-0.0139 -0.109825,-0.0697 -0.276853,-0.30629 -0.696885,-0.30629 -0.2673,0 -0.472546,0.1253 -0.200469,0.1253 -0.315027,0.34341 -0.109825,0.21812 -0.109825,0.50121 0,0.27844 0.119322,0.49656 0.119334,0.21811 0.33412,0.34341 0.214798,0.1253 0.491639,0.1253 0.186153,0 0.338896,-0.0464 0.157519,-0.051 0.276841,-0.15314 0.05733,-0.0464 0.119333,-0.051 0.06207,-0.004 0.114557,0.0371 0.05733,0.051 0.06207,0.11601 0.0099,0.0649 -0.04292,0.11138 -0.348447,0.31093 -0.86872,0.31093 z"
           transform="matrix(0.90871603,0,0,0.93464793,185.24357,-17.870153)" />
        <path
           inkscape:connector-curvature="0"
           id="path858"
           style="font-style:normal;font-variant:normal;font-weight:bold;font-stretch:normal;font-size:6.60342789px;line-height:1.25;font-family:Comfortaa;-inkscape-font-specification:'Comfortaa, Bold';font-variant-ligatures:normal;font-variant-caps:normal;font-variant-numeric:normal;font-feature-settings:normal;text-align:start;letter-spacing:0px;word-spacing:0px;writing-mode:lr-tb;text-anchor:start;fill:#d50000;fill-opacity:1;stroke:#000000;stroke-width:0.28709424;stroke-opacity:0"
           d="m 5.5866303,290.22694 q -0.1525999,0 -0.2615999,-0.10603 -0.1090549,-0.10603 -0.1090549,-0.26141 v -1.64618 l -1.9402321,-2.93204 q -0.094419,-0.14837 -0.07263,-0.27555 0.021789,-0.13423 0.123526,-0.21195 0.1090549,-0.0847 0.2470738,-0.0847 0.123537,0 0.1962,0.0565 0.07263,0.0494 0.1380739,0.14836 l 1.8457581,2.84726 H 5.4630714 l 1.8748321,-2.87551 q 0.058104,-0.0849 0.1380629,-0.12719 0.079893,-0.0494 0.1961999,-0.0494 0.130811,0 0.2180109,0.0918 0.087156,0.0848 0.101682,0.21903 0.014526,0.12717 -0.07263,0.26141 l -1.9547581,2.93203 v 1.64619 q 0,0.15542 -0.1090549,0.26141 -0.109055,0.10603 -0.2688739,0.10603 z"
           transform="matrix(0.90871603,0,0,0.93464793,185.24357,-17.870153)" />
        <path
           d="m 193.41078,253.41498 q -0.41937,0 -0.76726,-0.1382 -0.34788,-0.14297 -0.60046,-0.39554 -0.24781,-0.25734 -0.38601,-0.60523 -0.1382,-0.35265 -0.1382,-0.77202 0,-0.41937 0.1382,-0.76726 0.1382,-0.34789 0.38601,-0.60046 0.25258,-0.25734 0.60046,-0.39554 0.34789,-0.14297 0.76726,-0.14297 0.41937,0 0.76249,0.14297 0.34789,0.1382 0.60046,0.39554 0.25258,0.25257 0.39078,0.60046 0.1382,0.34789 0.1382,0.76726 0,0.41937 -0.1382,0.77202 -0.1382,0.34789 -0.39078,0.60523 -0.25257,0.25257 -0.60046,0.39554 -0.34312,0.1382 -0.76249,0.1382 z m 0,-0.44796 q 0.30976,0 0.5671,-0.10961 0.26211,-0.11437 0.45273,-0.30976 0.19062,-0.20016 0.2907,-0.46703 0.10484,-0.26687 0.10484,-0.57663 0,-0.30976 -0.10484,-0.57664 -0.10008,-0.26687 -0.2907,-0.46226 -0.19062,-0.20015 -0.45273,-0.30976 -0.25734,-0.10961 -0.5671,-0.10961 -0.30976,0 -0.57187,0.10961 -0.25734,0.10961 -0.44796,0.30976 -0.18586,0.19539 -0.2907,0.46226 -0.10484,0.26688 -0.10484,0.57664 0,0.30976 0.10484,0.57663 0.10484,0.26687 0.2907,0.46703 0.19062,0.19539 0.44796,0.30976 0.26211,0.10961 0.57187,0.10961 z"
           style="font-style:normal;font-variant:normal;font-weight:bold;font-stretch:normal;font-size:4.76556873px;font-family:Comfortaa;-inkscape-font-specification:'Comfortaa, Bold';font-variant-ligatures:normal;font-variant-caps:normal;font-variant-numeric:normal;font-feature-settings:normal;text-align:start;writing-mode:lr-tb;text-anchor:start;fill:#d50000;fill-opacity:1;stroke:#000000;stroke-width:0.26458335;stroke-opacity:0"
           id="path861"
           inkscape:connector-curvature="0" />
        <path
           d="m 197.64201,253.44357 q -0.4575,0 -0.81015,-0.16679 -0.35265,-0.17156 -0.5528,-0.47179 -0.19539,-0.30023 -0.19539,-0.68624 v -2.22552 q 0,-0.10961 0.0715,-0.17633 0.0715,-0.0715 0.17633,-0.0715 0.10961,0 0.17632,0.0715 0.0715,0.0667 0.0715,0.17633 v 2.22552 q 0,0.25734 0.13343,0.45749 0.1382,0.19539 0.37648,0.30976 0.24305,0.10961 0.55281,0.10961 0.30023,0 0.52898,-0.10961 0.23351,-0.11437 0.36218,-0.30976 0.13344,-0.20015 0.13344,-0.45749 v -2.22552 q 0,-0.10961 0.0715,-0.17633 0.0715,-0.0715 0.17633,-0.0715 0.1096,0 0.17632,0.0715 0.0667,0.0667 0.0667,0.17633 v 2.22552 q 0,0.38601 -0.19539,0.68624 -0.19062,0.30023 -0.53374,0.47179 -0.34312,0.16679 -0.78632,0.16679 z"
           style="font-style:normal;font-variant:normal;font-weight:bold;font-stretch:normal;font-size:4.76556873px;font-family:Comfortaa;-inkscape-font-specification:'Comfortaa, Bold';font-variant-ligatures:normal;font-variant-caps:normal;font-variant-numeric:normal;font-feature-settings:normal;text-align:start;writing-mode:lr-tb;text-anchor:start;fill:#d50000;fill-opacity:1;stroke:#000000;stroke-width:0.26458335;stroke-opacity:0"
           id="path863"
           inkscape:connector-curvature="0" />
        <path
           d="m 200.36173,253.36732 q -0.10484,0 -0.17632,-0.0715 -0.0715,-0.0715 -0.0715,-0.17632 v -3.22629 q 0,-0.10961 0.0715,-0.17633 0.0715,-0.0715 0.17632,-0.0715 h 0.85781 q 0.35741,0 0.63382,0.15249 0.2764,0.14774 0.4289,0.40984 0.15726,0.26211 0.15726,0.61 0,0.32405 -0.15726,0.57663 -0.1525,0.25257 -0.4289,0.39554 -0.27641,0.14297 -0.63382,0.14297 h -0.61 v 1.18663 q 0,0.10484 -0.0715,0.17632 -0.0667,0.0715 -0.17633,0.0715 z m 1.97771,0 q -0.0667,0 -0.1239,-0.0286 -0.0524,-0.0286 -0.0906,-0.0905 l -0.8578,-1.38202 0.48132,-0.1382 0.78156,1.25811 q 0.0858,0.1382 0.0238,0.26211 -0.062,0.11913 -0.21446,0.11913 z m -1.7299,-1.89193 h 0.61 q 0.21921,0 0.38601,-0.081 0.16679,-0.0858 0.2621,-0.23351 0.0953,-0.1525 0.0953,-0.34312 0,-0.20969 -0.0953,-0.37172 -0.0953,-0.16203 -0.2621,-0.25257 -0.1668,-0.0905 -0.38601,-0.0905 h -0.61 z"
           style="font-style:normal;font-variant:normal;font-weight:bold;font-stretch:normal;font-size:4.76556873px;font-family:Comfortaa;-inkscape-font-specification:'Comfortaa, Bold';font-variant-ligatures:normal;font-variant-caps:normal;font-variant-numeric:normal;font-feature-settings:normal;text-align:start;writing-mode:lr-tb;text-anchor:start;fill:#d50000;fill-opacity:1;stroke:#000000;stroke-width:0.26458335;stroke-opacity:0"
           id="path865"
           inkscape:connector-curvature="0" />
      </g>
    </g>
  </g>
</svg>
