<?xml version="1.0" encoding="UTF-8" standalone="no"?>
<!-- Created with Inkscape (http://www.inkscape.org/) -->

<svg
   xmlns:dc="http://purl.org/dc/elements/1.1/"
   xmlns:cc="http://creativecommons.org/ns#"
   xmlns:rdf="http://www.w3.org/1999/02/22-rdf-syntax-ns#"
   xmlns:svg="http://www.w3.org/2000/svg"
   xmlns="http://www.w3.org/2000/svg"
   xmlns:sodipodi="http://sodipodi.sourceforge.net/DTD/sodipodi-0.dtd"
   xmlns:inkscape="http://www.inkscape.org/namespaces/inkscape"
   width="28.458334mm"
   height="13.871736mm"
   viewBox="0 0 28.458334 13.871736"
   version="1.1"
   id="svg8"
   inkscape:version="0.92.4 (5da689c313, 2019-01-14)"
   sodipodi:docname="logo.svg">
  <defs
     id="defs2" />
  <sodipodi:namedview
     id="base"
     pagecolor="#ffffff"
     bordercolor="#666666"
     borderopacity="1.0"
     inkscape:pageopacity="0.0"
     inkscape:pageshadow="2"
     inkscape:zoom="2.8"
     inkscape:cx="37.85692"
     inkscape:cy="99.725975"
     inkscape:document-units="mm"
     inkscape:current-layer="layer3"
     showgrid="false"
     showguides="true"
     inkscape:guide-bbox="true"
     inkscape:window-width="1920"
     inkscape:window-height="1017"
     inkscape:window-x="-8"
     inkscape:window-y="-8"
     inkscape:window-maximized="1"
     inkscape:pagecheckerboard="true"
     fit-margin-top="1"
     fit-margin-bottom="1"
     fit-margin-right="1"
     fit-margin-left="1">
    <sodipodi:guide
       position="7.7979053,8.2476806"
       orientation="0,1"
       id="guide4574"
       inkscape:locked="false" />
    <sodipodi:guide
       position="19.156865,5.9591806"
       orientation="0,1"
       id="guide4576"
       inkscape:locked="false" />
    <sodipodi:guide
       position="22.146935,10.28561"
       orientation="0,1"
       id="guide4578"
       inkscape:locked="false" />
    <sodipodi:guide
       position="26.606995,12.1732"
       orientation="0,1"
       id="guide4580"
       inkscape:locked="false" />
  </sodipodi:namedview>
  <metadata
     id="metadata5">
    <rdf:RDF>
      <cc:Work
         rdf:about="">
        <dc:format>image/svg+xml</dc:format>
        <dc:type
           rdf:resource="http://purl.org/dc/dcmitype/StillImage" />
        <dc:title></dc:title>
      </cc:Work>
    </rdf:RDF>
  </metadata>
  <g
     inkscape:groupmode="layer"
     id="layer3"
     inkscape:label="trait 1"
     transform="translate(-35.382812,-76.223968)">
    <path
       style="fill:none;stroke:#000000;stroke-width:0.26458332px;stroke-linecap:butt;stroke-linejoin:miter;stroke-opacity:1"
       d="m -383.3146,21.478527 7.18286,-0.534539 -7.684,5.946748 9.40456,0.718286 -0.3007,-4.125973 z"
       id="path878"
       inkscape:connector-curvature="0" />
    <path
       style="fill:#d20934;fill-opacity:1;stroke:#000000;stroke-width:0.26458332px;stroke-linecap:butt;stroke-linejoin:miter;stroke-opacity:1"
       d="m -386.17106,15.481667 c 0,0 10.97476,-4.092565 7.21627,-1.26953 -3.75846,2.823034 3.4077,1.804069 3.4077,1.804069 l -1.35305,-2.655991 -7.11605,2.80633 c 0,0 -6.21403,2.488947 0.35079,1.787365 6.56481,-0.701583 12.16075,-1.119191 7.24969,1.937704 -4.91109,3.056895 -9.75535,-4.409947 -9.75535,-4.409947 z"
       id="path880"
       inkscape:connector-curvature="0" />
    <g
       id="g836"
       transform="matrix(0.40186947,0,0,0.40186947,21.761671,53.29086)"
       style="fill:#ffffff;fill-opacity:1;stroke-width:2.48837018">
      <path
         inkscape:connector-curvature="0"
         id="path4582"
         d="m 51.190834,69.077526 c -2.982069,0 -5.41872,2.432717 -5.41872,5.414785 0,2.982071 2.436649,5.418722 5.41872,5.41872 2.982069,0 5.414785,-2.436649 5.414785,-5.41872 -2e-6,-2.982068 -2.432716,-5.414783 -5.414785,-5.414785 z m 0,1.609482 c 2.110964,2e-6 3.805302,1.694339 3.805304,3.805303 0,2.110967 -1.69434,3.805304 -3.805304,3.805304 -2.110966,0 -3.805303,-1.694337 -3.805303,-3.805304 0,-2.110964 1.694339,-3.805303 3.805303,-3.805303 z"
         style="color:#000000;font-style:normal;font-variant:normal;font-weight:normal;font-stretch:normal;font-size:medium;line-height:normal;font-family:sans-serif;font-variant-ligatures:normal;font-variant-position:normal;font-variant-caps:normal;font-variant-numeric:normal;font-variant-alternates:normal;font-feature-settings:normal;text-indent:0;text-align:start;text-decoration:none;text-decoration-line:none;text-decoration-style:solid;text-decoration-color:#000000;letter-spacing:normal;word-spacing:normal;text-transform:none;writing-mode:lr-tb;direction:ltr;text-orientation:mixed;dominant-baseline:auto;baseline-shift:baseline;text-anchor:start;white-space:normal;shape-padding:0;clip-rule:nonzero;display:inline;overflow:visible;visibility:visible;opacity:1;isolation:auto;mix-blend-mode:normal;color-interpolation:sRGB;color-interpolation-filters:linearRGB;solid-color:#000000;solid-opacity:1;vector-effect:none;fill:#ffffff;fill-opacity:1;fill-rule:nonzero;stroke:none;stroke-width:1.99069619;stroke-linecap:butt;stroke-linejoin:miter;stroke-miterlimit:4;stroke-dasharray:none;stroke-dashoffset:0;stroke-opacity:1;paint-order:normal;color-rendering:auto;image-rendering:auto;shape-rendering:auto;text-rendering:auto;enable-background:accumulate" />
      <path
         inkscape:connector-curvature="0"
         id="path4603"
         d="m 51.155418,68.77452 c -3.051145,0 -5.54858,2.497436 -5.54858,5.54858 -2e-6,3.051146 2.497433,5.552515 5.54858,5.552515 3.051144,0 5.552517,-2.501369 5.552515,-5.552515 0,-3.051144 -2.501371,-5.54858 -5.552515,-5.54858 z m 0,2.416189 c 1.744487,0 3.132389,1.387903 3.132389,3.132391 2e-6,1.744488 -1.387902,3.136326 -3.132389,3.136324 -1.74449,2e-6 -3.132391,-1.391836 -3.132391,-3.136324 0,-1.744488 1.387903,-3.132391 3.132391,-3.132391 z"
         style="color:#000000;font-style:normal;font-variant:normal;font-weight:normal;font-stretch:normal;font-size:medium;line-height:normal;font-family:sans-serif;font-variant-ligatures:normal;font-variant-position:normal;font-variant-caps:normal;font-variant-numeric:normal;font-variant-alternates:normal;font-feature-settings:normal;text-indent:0;text-align:start;text-decoration:none;text-decoration-line:none;text-decoration-style:solid;text-decoration-color:#000000;letter-spacing:normal;word-spacing:normal;text-transform:none;writing-mode:lr-tb;direction:ltr;text-orientation:mixed;dominant-baseline:auto;baseline-shift:baseline;text-anchor:start;white-space:normal;shape-padding:0;clip-rule:nonzero;display:inline;overflow:visible;visibility:visible;opacity:1;isolation:auto;mix-blend-mode:normal;color-interpolation:sRGB;color-interpolation-filters:linearRGB;solid-color:#000000;solid-opacity:1;vector-effect:none;fill:#ffffff;fill-opacity:1;fill-rule:nonzero;stroke:none;stroke-width:2.98604441;stroke-linecap:butt;stroke-linejoin:miter;stroke-miterlimit:4;stroke-dasharray:none;stroke-dashoffset:0;stroke-opacity:1;paint-order:normal;color-rendering:auto;image-rendering:auto;shape-rendering:auto;text-rendering:auto;enable-background:accumulate" />
      <path
         inkscape:connector-curvature="0"
         id="path4603-0"
         d="m 51.155418,59.554431 c -8.14417,0 -14.772604,6.6245 -14.772606,14.768669 0,8.144169 6.628436,14.772604 14.772606,14.772604 8.144169,0 14.772604,-6.628435 14.772604,-14.772604 0,-8.144169 -6.628435,-14.768669 -14.772604,-14.768669 z m 0,2.416189 c 6.837511,2e-6 12.356413,5.514967 12.356413,12.35248 2e-6,6.837513 -5.5189,12.356413 -12.356413,12.356413 -6.837513,0 -12.35248,-5.5189 -12.35248,-12.356413 2e-6,-6.837513 5.514967,-12.352478 12.35248,-12.35248 z"
         style="color:#000000;font-style:normal;font-variant:normal;font-weight:normal;font-stretch:normal;font-size:medium;line-height:normal;font-family:sans-serif;font-variant-ligatures:normal;font-variant-position:normal;font-variant-caps:normal;font-variant-numeric:normal;font-variant-alternates:normal;font-feature-settings:normal;text-indent:0;text-align:start;text-decoration:none;text-decoration-line:none;text-decoration-style:solid;text-decoration-color:#000000;letter-spacing:normal;word-spacing:normal;text-transform:none;writing-mode:lr-tb;direction:ltr;text-orientation:mixed;dominant-baseline:auto;baseline-shift:baseline;text-anchor:start;white-space:normal;shape-padding:0;clip-rule:nonzero;display:inline;overflow:visible;visibility:visible;opacity:1;isolation:auto;mix-blend-mode:normal;color-interpolation:sRGB;color-interpolation-filters:linearRGB;solid-color:#000000;solid-opacity:1;vector-effect:none;fill:#ffffff;fill-opacity:1;fill-rule:nonzero;stroke:none;stroke-width:2.98604441;stroke-linecap:butt;stroke-linejoin:miter;stroke-miterlimit:4;stroke-dasharray:none;stroke-dashoffset:0;stroke-opacity:1;paint-order:normal;color-rendering:auto;image-rendering:auto;shape-rendering:auto;text-rendering:auto;enable-background:accumulate" />
      <path
         sodipodi:nodetypes="cccccccscccsscccccc"
         inkscape:connector-curvature="0"
         id="path866-6"
         d="m 74.933451,68.419751 h 1.356731 l -0.301495,1.967261 h 1.582848 l -0.03016,1.07031 h -1.628076 l -0.889409,5.826405 c 0,0 -0.09045,0.542688 0.467315,0.542688 0.557767,0 0.900827,-0.0515 0.900827,-0.0515 0,0 0.29008,-0.295247 0.576504,-0.340469 0.286423,-0.04525 0.150748,0.376873 -4e-6,0.587917 -0.150748,0.211061 -1.356733,1.070311 -2.366738,1.115537 -1.010011,0.04525 -1.9145,-0.3618 -1.82405,-1.326581 0.09045,-0.964791 0.798963,-6.354027 0.798963,-6.354027 H 72.70236 v -0.776358 h 0.633144 c 0,0 0.979862,-0.180889 1.597927,-2.261218 z"
         style="fill:#ffffff;fill-opacity:1;stroke:none;stroke-width:0.65838128px;stroke-linecap:butt;stroke-linejoin:miter;stroke-opacity:1" />
      <path
         inkscape:connector-curvature="0"
         id="path868-4"
         d="m 85.977903,70.38702 c -0.109404,0 -0.352412,0.26729 -0.352412,0.26729 0,0 -0.704734,0.0489 -1.069355,0.01249 -0.364605,-0.03663 -1.05746,-0.1824 -1.05746,-0.1824 v 0.0032 c -0.261513,-0.05688 -0.634443,-0.08936 -1.178813,-0.0763 -4.083252,0.0977 -5.031854,5.384025 -4.375527,7.170665 0.656316,1.786637 2.430885,1.4952 3.451836,1.410123 1.02094,-0.08509 1.402354,-0.893423 1.402354,-0.893423 -0.08045,1.002542 1.416768,1.063333 1.818147,1.002611 0,0 2.68e-4,0 2.68e-4,0 0.401228,-0.06093 1.434006,-0.571237 1.543376,-0.850731 0.109363,-0.279562 0.02418,-0.607816 -0.121594,-0.68074 -0.145851,-0.07291 -0.291608,0.352674 -0.291608,0.352674 0,0 -0.170171,0.03625 -0.486166,0.02418 -0.316006,-0.01209 -0.291837,-0.43727 -0.291837,-0.43727 z m -2.967202,1.02538 c 0.09935,-2.38e-4 0.20229,0.004 0.308678,0.0139 l -0.719281,6.155638 c 0,0 -1.639472,0.928456 -2.040936,-0.317742 -0.388905,-1.207242 -0.628604,-5.844569 2.451547,-5.851881 z"
         style="fill:#ffffff;fill-opacity:1;stroke:none;stroke-width:0.65838128px;stroke-linecap:butt;stroke-linejoin:miter;stroke-opacity:1" />
      <path
         inkscape:connector-curvature="0"
         id="path882-6"
         d="m 90.530344,67.151622 -3.335012,0.203763 -0.204142,0.612004 c 0,0 0.407941,0.01189 0.587891,0.01189 0.179942,0 0.359772,0.036 0.38375,0.51588 0.024,0.479876 -1.391393,10.557334 -1.391393,10.557334 h 2.387161 l 0.54928,-4.15895 c 0.31716,0.733389 1.601102,3.679679 1.9158,4.006416 0.357406,0.371086 1.651553,0.272413 1.651553,0.272413 0,0 1.515975,-0.297147 1.713154,-1.212505 0.197189,-0.915351 -0.380361,-0.799008 -0.503631,-0.427918 -0.291193,0.131164 -0.813519,0.0133 -0.813519,0.0133 l -1.776273,-3.469357 c 0,0 4.641372,-2.132009 1.959602,-3.611895 -0.665514,-0.235021 -1.635251,0.286163 -1.450395,1.411803 0.147907,1.014311 -2.566036,2.573086 -2.566036,2.573086 l -0.07755,0.04417 z"
         style="fill:#ffffff;fill-opacity:1;stroke:none;stroke-width:0.65838128px;stroke-linecap:butt;stroke-linejoin:miter;stroke-opacity:1" />
      <path
         sodipodi:nodetypes="cccsccsccccccscc"
         inkscape:connector-curvature="0"
         id="path4601-8"
         d="m 100.00834,70.387022 c -0.370044,0.0048 -0.793968,0.05116 -1.277052,0.143776 -3.267895,0.626489 -3.809681,3.995898 -3.809681,3.995898 0,0 -0.550737,3.709288 1.870793,4.326158 3.123978,0.795812 4.91047,-1.388365 4.91047,-1.388365 l -0.46567,-0.643238 c 0,0 -0.97167,0.917016 -1.555829,0.99321 -0.999141,0.130317 -1.50553,0.189391 -2.042231,-1.052665 -0.101325,-0.431377 -0.08507,-1.267992 -0.08507,-1.267992 0,0 4.1148,-0.221832 4.58043,-2.321425 0.30002,-1.628658 -0.1279,-2.81156 -2.12615,-2.785365 z m -0.942594,0.812691 c 1.312234,0.02533 0.804112,1.735371 0.719452,1.997819 -0.08464,0.26244 -0.808835,1.642659 -2.23114,1.591864 0,0 -0.23658,-3.428825 1.511688,-3.589683 z"
         style="fill:#ffffff;fill-opacity:1;stroke:none;stroke-width:0.65838128px;stroke-linecap:butt;stroke-linejoin:miter;stroke-opacity:1" />
    </g>
  </g>
</svg>
